PathFileType	4	(X/Y/Z)	 s08c0102.trc
DataRate	CameraRate	NumFrames	NumMarkers	Units	OrigDataRate	OrigDataStartFrame	OrigNumFrames
200	200	5	50	mm	200	1751	2000
Frame#	Time	racr			lacr			c7			jug			rlel			rdr			llel			ldr			s2			lic			ric			lasi			rasi			rpsi			lpsi			rgt			lgt			rth1			rth2			rth3			rth4			rlfc			rmfc			rsh1			rsh2			rsh3			rsh4			rlmal			rmmal			rcal			rtoe			rmt5			lth1			lth2			lth4			lth3			llfc			lmfc			llmal			lmmal			lcal			lmt5			lsh1			lsh2			lsh3			lsh4			ltoe			SBIKE			LBIKE			RBIKE			
		X1	Y1	Z1	X2	Y2	Z2	X3	Y3	Z3	X4	Y4	Z4	X5	Y5	Z5	X6	Y6	Z6	X7	Y7	Z7	X8	Y8	Z8	X9	Y9	Z9	X10	Y10	Z10	X11	Y11	Z11	X12	Y12	Z12	X13	Y13	Z13	X14	Y14	Z14	X15	Y15	Z15	X16	Y16	Z16	X17	Y17	Z17	X18	Y18	Z18	X19	Y19	Z19	X20	Y20	Z20	X21	Y21	Z21	X22	Y22	Z22	X23	Y23	Z23	X24	Y24	Z24	X25	Y25	Z25	X26	Y26	Z26	X27	Y27	Z27	X28	Y28	Z28	X29	Y29	Z29	X30	Y30	Z30	X31	Y31	Z31	X32	Y32	Z32	X33	Y33	Z33	X34	Y34	Z34	X35	Y35	Z35	X36	Y36	Z36	X37	Y37	Z37	X38	Y38	Z38	X39	Y39	Z39	X40	Y40	Z40	X41	Y41	Z41	X42	Y42	Z42	X43	Y43	Z43	X44	Y44	Z44	X45	Y45	Z45	X46	Y46	Z46	X47	Y47	Z47	X48	Y48	Z48	X49	Y49	Z49	X50	Y50	Z50	
1751	8.7550	527.139242	1356.391400	-22.948207	550.975246	1375.766557	-346.358841	515.622692	1430.684811	-183.742398	466.149387	1278.662004	-186.353907	592.971032	1109.562012	48.613206	798.788006	896.750748	-38.413454	635.103880	1131.475029	-439.136331	812.713389	893.110617	-395.756053	-48.505190	1217.855085	-235.205444	129.930605	1200.861647	-364.259167	99.557786	1228.144431	-57.898940	142.480185	1147.924141	-333.433630	122.112443	1182.911229	-86.391363	-20.058070	1261.959713	-183.854636	-9.889655	1259.599923	-279.676258	28.595388	1127.958137	-26.259868	58.199640	1085.637778	-406.074171	174.679450	1035.126790	-21.671444	260.591007	1013.902856	-22.745249	323.048121	953.181737	-28.874191	277.981589	1044.722331	-33.118238	419.925059	880.304856	-48.264014	399.556041	873.054932	-184.888974	367.992118	759.406148	-21.150688	371.277728	670.867441	-40.214321	330.541351	595.014073	-46.362403	399.695257	668.928319	-69.208262	295.590157	478.332377	-57.297121	312.099357	502.481089	-144.617611	218.450108	440.807980	-102.845785	515.056773	461.338914	-97.058075	429.945119	420.808942	-31.215161	135.060917	974.625504	-414.023054	201.630569	918.079948	-410.942588	230.507720	938.018856	-400.205443	231.447419	834.341133	-411.080993	281.384536	714.575445	-389.535491	274.950900	689.958700	-283.865207	78.087752	352.936126	-396.559270	191.153017	400.005321	-349.836533	14.802211	361.241775	-358.163799	168.094184	210.034149	-414.524037	222.516861	601.468005	-417.046057	199.407616	520.653602	-399.550789	140.867679	455.024251	-404.386619	219.078004	513.518024	-366.187763	253.171712	196.849411	-344.559066	-142.707705	941.365015	-221.163739	18.035832	84.347033	-425.829567	11.146295	80.495815	-27.351586	
1752	8.7600	527.576590	1356.881363	-23.836448	550.851107	1375.527424	-347.029266	515.591548	1430.742450	-184.383322	466.130064	1278.644911	-186.871173	593.654962	1110.198248	47.949411	798.969185	896.648805	-38.521573	634.926293	1131.362455	-439.963341	812.640441	893.170935	-395.891191	-48.860898	1217.799993	-234.466605	129.265888	1201.475961	-364.226939	99.760710	1227.487685	-57.267447	142.063362	1148.832308	-332.627800	122.620324	1182.005344	-85.156381	-20.171623	1261.773076	-182.962859	-10.234723	1259.634189	-278.741146	28.454283	1126.416376	-26.341179	59.121929	1086.535137	-405.829693	173.067834	1030.882728	-21.660783	259.030430	1008.250245	-22.749713	319.503364	946.308394	-27.877202	276.942624	1038.849541	-32.169909	416.619850	872.989350	-48.645880	400.624342	862.543765	-165.678788	366.628271	750.755855	-21.512729	371.694232	662.386627	-40.111711	332.757511	585.641162	-46.520797	399.843920	661.072571	-68.929144	300.174985	468.517496	-57.083828	315.846350	492.715042	-143.979710	223.448264	430.241464	-102.731498	519.892531	453.422454	-97.001272	435.217601	411.957307	-31.329864	139.239797	978.326273	-415.549252	205.692334	921.887183	-409.471765	234.010197	942.242764	-397.983579	237.390921	838.763561	-410.598376	287.622879	719.042588	-389.553807	280.837724	694.133800	-283.737690	76.124784	362.532225	-396.680726	178.090860	403.277766	-345.675177	12.803620	372.294746	-358.166090	163.015900	218.007201	-414.568960	226.868719	607.025445	-417.010544	201.672500	526.973096	-399.486924	141.489116	462.784201	-404.378337	221.056811	519.223588	-365.879813	247.846907	203.128570	-344.570724	-142.722494	941.355383	-221.242055	18.029746	84.338543	-425.853278	11.161414	80.482899	-27.350997	
1753	8.7650	528.021099	1357.261675	-24.648501	550.638488	1375.264270	-347.994951	515.554669	1430.784615	-185.134341	466.152105	1278.624066	-187.575193	594.233960	1110.584803	47.274302	799.151483	896.516940	-38.611838	634.710915	1131.216527	-440.902039	812.573642	893.225617	-396.030933	-49.067728	1217.665083	-233.717632	128.362060	1201.752033	-363.868215	100.134240	1226.864254	-56.559285	141.805789	1149.912751	-332.051655	123.334241	1181.189930	-84.859887	-20.184572	1261.442751	-181.946948	-10.496356	1259.600515	-277.780908	28.314647	1124.722525	-26.342146	60.042184	1087.460230	-405.711061	171.684910	1026.445909	-21.518809	257.153016	1002.081414	-22.733482	316.960687	939.181857	-29.298055	275.685709	1032.654498	-31.278102	412.948788	864.824834	-48.494240	399.713124	852.074594	-159.821910	365.006460	742.101704	-21.683453	371.888756	653.716275	-40.058867	334.556446	576.224543	-46.352607	400.183125	653.095301	-69.135400	304.385370	458.448457	-56.754233	319.957342	482.834752	-144.368337	227.995250	419.873921	-102.304613	524.279129	445.005870	-96.907458	440.022724	402.965939	-31.513681	142.261035	980.906708	-414.665342	209.673664	925.760732	-408.068879	237.439714	946.525374	-395.814075	243.007439	843.516786	-409.768846	293.906577	723.690256	-389.515713	287.568399	698.271413	-285.236149	74.654364	372.360023	-396.791373	162.828119	405.461874	-340.497373	11.413877	383.361717	-358.225997	158.551791	226.221771	-414.578902	231.305967	612.770647	-417.000388	204.197730	533.366557	-399.315136	142.543778	470.648580	-404.249970	223.300106	525.236539	-365.734155	242.963986	209.679956	-344.672751	-142.735267	941.358549	-221.282493	18.044319	84.344256	-425.846697	11.179326	80.498534	-27.363905	
1754	8.7700	528.479335	1357.686401	-25.668161	550.330442	1374.988495	-348.871957	515.512555	1430.811465	-185.899268	466.167900	1278.568663	-188.205033	594.641251	1110.838405	46.738774	799.272468	896.404502	-38.734396	634.483569	1130.940455	-441.741668	812.490947	893.280332	-396.135913	-49.276932	1217.368207	-232.769039	127.733565	1201.906824	-363.645198	100.526783	1225.972835	-55.923475	141.547668	1150.614700	-331.266865	123.878453	1180.129040	-83.911788	-20.082693	1261.026724	-180.844680	-10.717849	1259.626057	-276.947827	28.121533	1123.017093	-26.267412	61.098165	1088.326311	-405.475564	170.241736	1021.795588	-21.413065	254.876741	995.485330	-23.168154	314.235771	932.030108	-30.326972	274.398041	1026.203595	-30.412804	409.197629	856.867154	-48.996163	396.567164	844.252044	-160.447093	362.993307	733.153253	-21.859680	371.837680	644.996432	-39.905096	335.987741	566.685574	-46.268721	400.079696	644.895593	-69.056619	308.193542	448.298849	-56.443603	323.250856	472.781848	-143.483997	232.098866	409.665663	-101.490851	528.253718	436.195590	-97.015098	444.285561	393.612433	-31.551441	145.085823	983.515374	-413.487916	213.766480	929.885934	-407.132492	240.728025	950.707931	-393.489913	248.644816	848.065636	-408.935544	300.250549	728.634191	-389.503710	293.546667	703.288582	-283.890878	73.905429	382.342641	-396.856941	145.194414	406.442929	-334.230645	10.421506	394.921082	-358.363543	154.541171	234.755114	-414.620102	235.963765	618.761912	-416.923301	207.005351	539.973394	-399.219301	143.918634	478.728032	-404.150857	225.819689	531.433004	-365.368994	238.553503	216.601915	-344.906027	-142.735986	941.355293	-221.318418	18.054456	84.338396	-425.848481	11.180695	80.499361	-27.362036	
1755	8.7750	528.992183	1357.966999	-26.534422	549.964202	1374.767473	-350.022408	515.432870	1430.859463	-186.845604	466.283467	1278.412017	-188.946036	594.940576	1111.059971	46.185193	800.110760	896.314039	-38.185584	634.212290	1130.721613	-442.593675	812.377483	893.355701	-396.252848	-49.361478	1217.128883	-231.940064	126.817217	1201.937935	-363.162555	101.133473	1225.165968	-55.195918	141.305832	1151.253410	-330.326249	124.758126	1178.999207	-83.167938	-19.235805	1260.202654	-179.593489	-10.957176	1259.471288	-276.002362	27.992737	1120.966387	-26.229751	62.215731	1089.285369	-405.280277	168.653996	1016.975176	-21.232075	252.586447	988.510396	-23.697684	310.842193	924.429392	-30.788602	272.942033	1019.546395	-29.621030	405.117808	848.476294	-49.320742	392.727493	835.886877	-160.577240	360.619877	724.025332	-21.978721	371.914142	636.013018	-39.734798	337.160141	556.910305	-46.136464	399.374654	636.615864	-68.885020	311.563288	438.056168	-56.021194	326.368174	462.728418	-143.241638	236.035320	398.208005	-102.119727	531.846535	426.870834	-97.042523	448.139594	383.857396	-31.621079	147.998539	986.206166	-412.607501	217.619998	933.870681	-405.769789	243.940128	955.122740	-391.503050	254.185449	853.039667	-408.593624	306.696264	733.783801	-389.463607	300.047889	707.991863	-284.038065	73.401864	392.555979	-396.928234	125.019364	406.106215	-326.802516	9.851446	406.713273	-358.321086	151.023083	243.620245	-414.589802	240.667863	625.166854	-417.064722	210.036138	546.950771	-398.969012	145.666823	487.071987	-404.052750	228.601695	537.987927	-365.255705	234.666728	223.896597	-344.950105	-142.736575	941.336011	-221.330280	18.063543	84.318209	-425.843596	11.200692	80.507120	-27.372545	
